# Blender 3.3.1
# www.blender.org
mtllib livro.mtl
o capa_cima
v 1.010328 0.110547 -1.410000
v 1.010328 0.090547 -1.410000
v 1.010328 0.110547 1.410000
v 1.010328 0.090547 1.410000
v -0.989672 0.110547 -1.410000
v -0.989672 0.090547 -1.410000
v -0.989672 0.110547 1.410000
v -0.989672 0.090547 1.410000
vn -0.0000 1.0000 -0.0000
vn -0.0000 -0.0000 1.0000
vn -1.0000 -0.0000 -0.0000
vn -0.0000 -1.0000 -0.0000
vn 1.0000 -0.0000 -0.0000
vn -0.0000 -0.0000 -1.0000
vt 0.003339 0.005848
vt 0.625000 0.500000
vt 0.375000 0.500000
vt 0.003339 0.996933
vt 0.625000 0.750000
vt 0.375000 0.750000
vt 0.994425 0.005848
vt 0.625000 0.250000
vt 0.125000 0.500000
vt 0.375000 0.250000
vt 0.994425 0.996933
vt 0.625000 1.000000
vt 0.625000 0.000000
vt 0.375000 1.000000
vt 0.375000 0.000000
vt 0.125000 0.750000
s 0
usemtl base.001
f 4/6/2 3/5/2 7/12/2 8/14/2
f 8/15/3 7/13/3 5/8/3 6/10/3
f 6/9/4 2/3/4 4/6/4 8/16/4
f 2/3/5 1/2/5 3/5/5 4/6/5
f 6/10/6 5/8/6 1/2/6 2/3/6
usemtl img.001
f 1/1/1 5/7/1 7/11/1 3/4/1
o Cube
v -0.990161 -0.110414 1.410000
v -0.990161 -0.090414 1.410000
v -0.990161 -0.110414 -1.410000
v -0.990161 -0.090414 -1.410000
v 1.009839 -0.110414 1.410000
v 1.009839 -0.090414 1.410000
v 1.009839 -0.110414 -1.410000
v 1.009839 -0.090414 -1.410000
vn -1.0000 -0.0000 -0.0000
vn -0.0000 -0.0000 -1.0000
vn 1.0000 -0.0000 -0.0000
vn -0.0000 -0.0000 1.0000
vn -0.0000 -1.0000 -0.0000
vn -0.0000 1.0000 -0.0000
vt 0.375000 0.000000
vt 0.375000 1.000000
vt 0.002887 0.992876
vt 0.625000 0.000000
vt 0.625000 1.000000
vt 0.875000 0.750000
vt 0.375000 0.250000
vt 0.002887 0.004149
vt 0.625000 0.250000
vt 0.875000 0.500000
vt 0.375000 0.750000
vt 0.991613 0.992876
vt 0.625000 0.750000
vt 0.375000 0.500000
vt 0.991613 0.004149
vt 0.625000 0.500000
s 0
usemtl base.002
f 9/17/7 10/20/7 12/25/7 11/23/7
f 11/23/8 12/25/8 16/32/8 15/30/8
f 15/30/9 16/32/9 14/29/9 13/27/9
f 13/27/10 14/29/10 10/21/10 9/18/10
f 16/32/12 12/26/12 10/22/12 14/29/12
usemtl img.002
f 11/24/11 15/31/11 13/28/11 9/19/11
o Cube.001
v 0.990000 -0.110000 1.410000
v 0.990000 0.110000 1.410000
v 0.990000 -0.110000 -1.410000
v 0.990000 0.110000 -1.410000
v 1.010000 -0.110000 1.410000
v 1.010000 0.110000 1.410000
v 1.010000 -0.110000 -1.410000
v 1.010000 0.110000 -1.410000
vn -1.0000 -0.0000 -0.0000
vn -0.0000 -0.0000 -1.0000
vn 1.0000 -0.0000 -0.0000
vn -0.0000 -0.0000 1.0000
vn -0.0000 -1.0000 -0.0000
vn -0.0000 1.0000 -0.0000
vt 0.375000 0.000000
vt 0.375000 1.000000
vt 0.125000 0.750000
vt 0.625000 0.000000
vt 0.625000 1.000000
vt 0.875000 0.750000
vt 0.375000 0.250000
vt 0.125000 0.500000
vt 0.625000 0.250000
vt 0.875000 0.500000
vt -0.028619 1.000378
vt 0.375000 0.750000
vt 1.006880 1.000378
vt 0.625000 0.750000
vt -0.028619 -0.002230
vt 0.375000 0.500000
vt 1.006880 -0.002230
vt 0.625000 0.500000
s 0
usemtl base.003
f 17/33/13 18/36/13 20/41/13 19/39/13
f 19/39/14 20/41/14 24/50/14 23/48/14
f 21/44/16 22/46/16 18/37/16 17/34/16
f 19/40/17 23/48/17 21/44/17 17/35/17
f 24/50/18 20/42/18 18/38/18 22/46/18
usemtl img.003
f 23/47/15 24/49/15 22/45/15 21/43/15
o Cube.002
v -0.968172 -0.091183 1.380000
v -0.968172 0.088817 1.380000
v -0.968172 -0.091183 -1.380000
v -0.968172 0.088817 -1.380000
v 0.991828 -0.091183 1.380000
v 0.991828 0.088817 1.380000
v 0.991828 -0.091183 -1.380000
v 0.991828 0.088817 -1.380000
vn -1.0000 -0.0000 -0.0000
vn -0.0000 -0.0000 -1.0000
vn 1.0000 -0.0000 -0.0000
vn -0.0000 -0.0000 1.0000
vn -0.0000 -1.0000 -0.0000
vn -0.0000 1.0000 -0.0000
vt 0.375000 0.000000
vt 0.375000 1.000000
vt 0.125000 0.750000
vt 0.625000 0.000000
vt 0.625000 1.000000
vt 0.875000 0.750000
vt 0.375000 0.250000
vt 0.125000 0.500000
vt 0.625000 0.250000
vt 0.875000 0.500000
vt 0.375000 0.750000
vt 0.625000 0.750000
vt 0.375000 0.500000
vt 0.625000 0.500000
s 0
usemtl base
f 31/63/21 32/64/21 30/62/21 29/61/21
f 27/58/23 31/63/23 29/61/23 25/53/23
f 32/64/24 28/60/24 26/56/24 30/62/24
usemtl img
f 25/51/19 26/54/19 28/59/19 27/57/19
f 27/57/20 28/59/20 32/64/20 31/63/20
f 29/61/22 30/62/22 26/55/22 25/52/22
